<svg xmlns="http://www.w3.org/2000/svg" xmlns:xlink="http://www.w3.org/1999/xlink" width="600" zoomAndPan="magnify" viewBox="0 0 450 74.999997" height="100" preserveAspectRatio="xMidYMid meet" version="1.0"><defs><g/><clipPath id="cfd70b3cda"><path d="M 7.511719 4.898438 L 374.238281 4.898438 L 374.238281 60.398438 L 7.511719 60.398438 Z M 7.511719 4.898438 " clip-rule="nonzero"/></clipPath><clipPath id="703788dd3b"><path d="M 12 9.773438 L 173.652344 9.773438 L 173.652344 55.839844 L 12 55.839844 Z M 12 9.773438 " clip-rule="nonzero"/></clipPath></defs><g clip-path="url(#cfd70b3cda)"><path stroke-linecap="butt" transform="matrix(0.749258, 0, 0, 0.751269, 7.513518, 4.89886)" fill="none" stroke-linejoin="miter" d="M -0.002402 -0.000561902 L 489.450719 -0.000561902 L 489.450719 73.874438 L -0.002402 73.874438 L -0.002402 -0.000561902 " stroke="#000000" stroke-width="6" stroke-opacity="1" stroke-miterlimit="4"/></g><g clip-path="url(#703788dd3b)"><path fill="#000000" d="M 12 9.773438 L 173.820312 9.773438 L 173.820312 56.453125 L 12 56.453125 Z M 12 9.773438 " fill-opacity="1" fill-rule="nonzero"/></g><g fill="#ffffff" fill-opacity="1"><g transform="translate(22.672019, 41.808606)"><g><path d="M 2.863281 0 L 5.335938 0 L 5.335938 -6.460938 L 9.523438 -6.460938 C 13.960938 -6.460938 16.824219 -9.015625 16.824219 -13.0625 C 16.824219 -17.078125 13.960938 -19.660156 9.523438 -19.660156 L 2.863281 -19.660156 Z M 5.335938 -8.761719 L 5.335938 -17.300781 L 9.464844 -17.300781 C 12.640625 -17.300781 14.296875 -15.839844 14.296875 -13.03125 C 14.296875 -10.222656 12.640625 -8.761719 9.464844 -8.761719 Z M 5.335938 -8.761719 "/></g></g></g><g fill="#ffffff" fill-opacity="1"><g transform="translate(42.748714, 41.808606)"><g><path d="M 15.757812 0 L 18.230469 0 L 18.230469 -19.660156 L 15.757812 -19.660156 L 15.757812 -11.207031 L 5.335938 -11.207031 L 5.335938 -19.660156 L 2.863281 -19.660156 L 2.863281 0 L 5.335938 0 L 5.335938 -8.847656 L 15.757812 -8.847656 Z M 15.757812 0 "/></g></g></g><g fill="#ffffff" fill-opacity="1"><g transform="translate(65.970153, 41.808606)"><g><path d="M 11.796875 0.363281 C 17.78125 0.363281 21.992188 -3.847656 21.992188 -9.832031 C 21.992188 -15.8125 17.78125 -20.027344 11.796875 -20.027344 C 5.8125 -20.027344 1.628906 -15.8125 1.628906 -9.832031 C 1.628906 -3.847656 5.8125 0.363281 11.796875 0.363281 Z M 4.15625 -9.832031 C 4.15625 -14.410156 7.273438 -17.554688 11.796875 -17.554688 C 16.320312 -17.554688 19.4375 -14.410156 19.4375 -9.832031 C 19.4375 -5.253906 16.320312 -2.105469 11.796875 -2.105469 C 7.273438 -2.105469 4.15625 -5.253906 4.15625 -9.832031 Z M 4.15625 -9.832031 "/></g></g></g><g fill="#ffffff" fill-opacity="1"><g transform="translate(91.690536, 41.808606)"><g><path d="M 2.863281 0 L 15.109375 0 L 15.109375 -2.304688 L 5.335938 -2.304688 L 5.335938 -8.875 L 14.101562 -8.875 L 14.101562 -11.152344 L 5.335938 -11.152344 L 5.335938 -17.359375 L 14.800781 -17.359375 L 14.800781 -19.660156 L 2.863281 -19.660156 Z M 2.863281 0 "/></g></g></g><g fill="#ffffff" fill-opacity="1"><g transform="translate(110.75642, 41.808606)"><g><path d="M 2.863281 0 L 5.308594 0 L 5.308594 -15.390625 L 16.179688 0 L 18.480469 0 L 18.480469 -19.660156 L 16.066406 -19.660156 L 16.066406 -4.269531 L 5.195312 -19.660156 L 2.863281 -19.660156 Z M 2.863281 0 "/></g></g></g><g fill="#ffffff" fill-opacity="1"><g transform="translate(134.23055, 41.808606)"><g><path d="M 2.863281 0 L 5.335938 0 L 5.335938 -19.660156 L 2.863281 -19.660156 Z M 2.863281 0 "/></g></g></g><g fill="#ffffff" fill-opacity="1"><g transform="translate(144.564152, 41.808606)"><g><path d="M 1.066406 0 L 4.015625 0 L 9.660156 -8.171875 L 11.292969 -5.8125 L 15.308594 0 L 18.230469 0 L 11.179688 -10.082031 L 17.890625 -19.660156 L 15 -19.660156 L 11.320312 -14.378906 L 9.660156 -11.910156 L 4.296875 -19.660156 L 1.347656 -19.660156 L 8.089844 -10.054688 Z M 1.066406 0 "/></g></g></g><g fill="#000000" fill-opacity="1"><g transform="translate(181.259785, 43.580591)"><g><path d="M 11.261719 0.421875 C 16.683594 0.421875 20.785156 -2.863281 21.625 -7.863281 L 15.867188 -7.863281 C 15.167969 -6.011719 13.507812 -4.832031 11.375 -4.832031 C 8.621094 -4.832031 6.710938 -6.882812 6.710938 -9.832031 C 6.710938 -12.808594 8.652344 -14.828125 11.429688 -14.828125 C 13.480469 -14.828125 15.195312 -13.679688 15.785156 -11.910156 L 21.515625 -11.910156 C 20.503906 -16.878906 16.457031 -20.082031 11.207031 -20.082031 C 5.140625 -20.082031 0.953125 -15.898438 0.953125 -9.832031 C 0.953125 -3.761719 5.140625 0.421875 11.261719 0.421875 Z M 11.261719 0.421875 "/></g></g></g><g fill="#000000" fill-opacity="1"><g transform="translate(203.783962, 43.580591)"><g><path d="M 11.65625 0.421875 C 17.917969 0.421875 22.355469 -3.820312 22.355469 -9.832031 C 22.355469 -15.839844 17.917969 -20.082031 11.65625 -20.082031 C 5.394531 -20.082031 0.953125 -15.839844 0.953125 -9.832031 C 0.953125 -3.820312 5.394531 0.421875 11.65625 0.421875 Z M 6.710938 -9.832031 C 6.710938 -12.78125 8.761719 -14.828125 11.65625 -14.828125 C 14.578125 -14.828125 16.597656 -12.78125 16.597656 -9.832031 C 16.597656 -6.882812 14.578125 -4.832031 11.65625 -4.832031 C 8.761719 -4.832031 6.710938 -6.882812 6.710938 -9.832031 Z M 6.710938 -9.832031 "/></g></g></g><g fill="#000000" fill-opacity="1"><g transform="translate(227.122612, 43.580591)"><g><path d="M 2.078125 0 L 7.695312 0 L 7.695312 -9.972656 L 11.488281 -4.664062 L 15.167969 -4.664062 L 18.929688 -9.941406 L 18.929688 0 L 24.546875 0 L 24.546875 -19.660156 L 19.941406 -19.660156 L 13.3125 -10.308594 L 6.710938 -19.660156 L 2.078125 -19.660156 Z M 2.078125 0 "/></g></g></g><g fill="#000000" fill-opacity="1"><g transform="translate(253.747209, 43.580591)"><g><path d="M 2.078125 0 L 7.75 0 L 7.75 -4.859375 L 10.363281 -4.859375 C 15.363281 -4.859375 18.539062 -7.75 18.539062 -12.273438 C 18.539062 -16.796875 15.363281 -19.660156 10.363281 -19.660156 L 2.078125 -19.660156 Z M 7.695312 -9.605469 L 7.695312 -14.886719 L 9.832031 -14.886719 C 11.710938 -14.886719 12.808594 -13.875 12.808594 -12.246094 C 12.808594 -10.589844 11.710938 -9.605469 9.832031 -9.605469 Z M 7.695312 -9.605469 "/></g></g></g><g fill="#000000" fill-opacity="1"><g transform="translate(272.929274, 43.580591)"><g><path d="M 10.53125 0.421875 C 15.839844 0.421875 19.128906 -2.808594 19.128906 -8.089844 L 19.128906 -19.660156 L 13.480469 -19.660156 L 13.480469 -8.453125 C 13.480469 -6.121094 12.5 -4.886719 10.53125 -4.886719 C 8.566406 -4.886719 7.582031 -6.121094 7.582031 -8.453125 L 7.582031 -19.660156 L 1.910156 -19.660156 L 1.910156 -8.089844 C 1.910156 -2.808594 5.222656 0.421875 10.53125 0.421875 Z M 10.53125 0.421875 "/></g></g></g><g fill="#000000" fill-opacity="1"><g transform="translate(293.99304, 43.580591)"><g><path d="M 6.769531 0 L 12.414062 0 L 12.414062 -14.410156 L 18.398438 -14.410156 L 18.398438 -19.660156 L 0.785156 -19.660156 L 0.785156 -14.410156 L 6.769531 -14.410156 Z M 6.769531 0 "/></g></g></g><g fill="#000000" fill-opacity="1"><g transform="translate(313.175104, 43.580591)"><g><path d="M 2.078125 0 L 15.867188 0 L 15.867188 -4.632812 L 7.695312 -4.632812 L 7.695312 -7.667969 L 14.800781 -7.667969 L 14.800781 -12.21875 L 7.695312 -12.21875 L 7.695312 -15.082031 L 15.558594 -15.082031 L 15.558594 -19.660156 L 2.078125 -19.660156 Z M 2.078125 0 "/></g></g></g><g fill="#000000" fill-opacity="1"><g transform="translate(330.306959, 43.580591)"><g><path d="M 2.078125 0 L 7.75 0 L 7.75 -5.589844 L 9.886719 -5.589844 L 12.695312 0 L 19.128906 0 L 15.503906 -6.628906 C 17.582031 -7.78125 18.761719 -9.859375 18.761719 -12.609375 C 18.761719 -16.964844 15.8125 -19.660156 11.039062 -19.660156 L 2.078125 -19.660156 Z M 7.640625 -10.109375 L 7.640625 -15.027344 L 10.28125 -15.027344 C 12.078125 -15.027344 13.058594 -14.15625 13.058594 -12.582031 C 13.058594 -11.011719 12.078125 -10.109375 10.28125 -10.109375 Z M 7.640625 -10.109375 "/></g></g></g><g fill="#000000" fill-opacity="1"><g transform="translate(350.52817, 43.580591)"><g><path d="M 9.128906 0.421875 C 14.015625 0.421875 16.90625 -1.882812 16.90625 -5.757812 C 16.90625 -9.015625 14.800781 -10.925781 10.027344 -11.992188 C 7.5 -12.554688 6.574219 -13.171875 6.574219 -14.183594 C 6.574219 -15.140625 7.414062 -15.730469 8.734375 -15.730469 C 10.308594 -15.730469 11.207031 -14.914062 11.207031 -13.425781 L 16.542969 -13.425781 C 16.542969 -17.46875 13.453125 -20.082031 8.621094 -20.082031 C 3.988281 -20.082031 1.125 -17.777344 1.125 -14.070312 C 1.125 -10.757812 3.285156 -8.707031 7.722656 -7.863281 C 10.109375 -7.386719 11.261719 -6.65625 11.261719 -5.53125 C 11.261719 -4.550781 10.421875 -3.988281 9.042969 -3.988281 C 7.414062 -3.988281 6.460938 -4.859375 6.460938 -6.375 L 0.984375 -6.375 C 0.984375 -2.132812 4.015625 0.421875 9.128906 0.421875 Z M 9.128906 0.421875 "/></g></g></g></svg>